<?xml version="1.0" encoding="UTF-8"?>
<svg width="30px" height="30px" viewBox="0 0 30 30" version="1.1" xmlns="http://www.w3.org/2000/svg" xmlns:xlink="http://www.w3.org/1999/xlink">
    <!-- Generator: Sketch 53.2 (72643) - https://sketchapp.com -->
    <title>ic_grid</title>
    <desc>Created with Sketch.</desc>
    <g id="1440x900" stroke="none" stroke-width="1" fill="none" fill-rule="evenodd">
        <g id="03圆形矩形选择" transform="translate(-452.000000, -75.000000)" stroke="#666666" stroke-width="2">
            <g id="工具栏" transform="translate(0.000000, 60.000000)">
                <g id="分组-17" transform="translate(447.000000, 10.000000)">
                    <g id="分组-5" transform="translate(5.000000, 5.000000)">
                        <rect id="矩形-copy-124" x="21" y="21" width="6" height="6"></rect>
                        <rect id="矩形-copy-123" x="15" y="21" width="6" height="6"></rect>
                        <rect id="矩形-copy-122" x="9" y="21" width="6" height="6"></rect>
                        <rect id="矩形-copy-121" x="3" y="21" width="6" height="6"></rect>
                        <rect id="矩形-copy-119" x="21" y="15" width="6" height="6"></rect>
                        <rect id="矩形-copy-118" x="15" y="15" width="6" height="6"></rect>
                        <rect id="矩形-copy-117" x="9" y="15" width="6" height="6"></rect>
                        <rect id="矩形-copy-116" x="3" y="15" width="6" height="6"></rect>
                        <rect id="矩形-copy-114" x="21" y="9" width="6" height="6"></rect>
                        <rect id="矩形-copy-113" x="15" y="9" width="6" height="6"></rect>
                        <rect id="矩形-copy-112" x="9" y="9" width="6" height="6"></rect>
                        <rect id="矩形-copy-111" x="3" y="9" width="6" height="6"></rect>
                        <rect id="矩形-copy-109" x="21" y="3" width="6" height="6"></rect>
                        <rect id="矩形-copy-108" x="15" y="3" width="6" height="6"></rect>
                        <rect id="矩形-copy-107" x="9" y="3" width="6" height="6"></rect>
                        <rect id="矩形-copy-106" x="3" y="3" width="6" height="6"></rect>
                    </g>
                </g>
            </g>
        </g>
    </g>
</svg>