<?xml version="1.0" encoding="UTF-8"?>
<svg width="110px" height="110px" viewBox="0 0 110 110" version="1.1" xmlns="http://www.w3.org/2000/svg" xmlns:xlink="http://www.w3.org/1999/xlink">
    <!-- Generator: Sketch 53.2 (72643) - https://sketchapp.com -->
    <title>ic/jinggao</title>
    <desc>Created with Sketch.</desc>
    <g id="1440x900" stroke="none" stroke-width="1" fill="none" fill-rule="evenodd">
        <g id="17发布确认" transform="translate(-665.000000, -325.000000)">
            <g id="分组-3">
                <g id="分组-6" transform="translate(483.000000, 278.000000)">
                    <g id="分组-7" transform="translate(182.000000, 47.000000)">
                        <circle id="椭圆形" stroke="#ED8A1B" stroke-width="6" fill="#FFEFDD" cx="55" cy="55" r="52"></circle>
                        <path d="M51.66,34 L59.16,34 L57.78,64.72 L53.04,64.72 L51.66,34 Z M55.38,68.26 C56.64,68.26 57.72,68.62 58.56,69.46 C59.4,70.24 59.82,71.26 59.82,72.52 C59.82,73.78 59.4,74.8 58.56,75.64 C57.66,76.42 56.58,76.84 55.38,76.84 C54.18,76.84 53.16,76.42 52.32,75.58 C51.42,74.74 51,73.72 51,72.52 C51,71.26 51.42,70.24 52.32,69.46 C53.16,68.62 54.18,68.26 55.38,68.26 Z" id="！" fill="#ED8A1B" fill-rule="nonzero"></path>
                    </g>
                </g>
            </g>
        </g>
    </g>
</svg>