<?xml version="1.0" encoding="UTF-8"?>
<svg width="31px" height="30px" viewBox="0 0 31 30" version="1.1" xmlns="http://www.w3.org/2000/svg" xmlns:xlink="http://www.w3.org/1999/xlink">
    <!-- Generator: Sketch 53.2 (72643) - https://sketchapp.com -->
    <title>ic_lock</title>
    <desc>Created with Sketch.</desc>
    <g id="1440x900" stroke="none" stroke-width="1" fill="none" fill-rule="evenodd">
        <g id="04圆形矩形选择" transform="translate(-517.000000, -75.000000)" fill="#666666" fill-rule="nonzero">
            <g id="工具栏" transform="translate(0.000000, 60.000000)">
                <g id="分组-18" transform="translate(512.500000, 10.000000)">
                    <g id="ic/lock" transform="translate(4.200000, 5.000000)">
                        <path d="M9.3170283,9.42803977 C9.31698864,9.42392935 9.31696877,9.41981441 9.31696877,9.41569501 C9.31706058,5.87797289 12.3149224,3 15.9999404,3 C19.6849783,3 22.6830312,5.87800388 22.6830312,9.41569501 C22.6830312,9.41981441 22.6830114,9.42392935 22.6829717,9.42803977 L22.6829717,14.2220858 L24.6396358,14.2220858 C25.3878317,14.2220858 26,14.8097479 26,15.5280271 L26,25.6940302 C26,26.4123093 25.3878317,27 24.6396358,27 L7.36036417,27 C6.61216834,27 6,26.4123093 6,25.6940302 L6,15.5280556 C6,14.8097765 6.61216834,14.2220858 7.36036417,14.2220858 L9.3170283,14.2220858 L9.3170283,9.42803977 Z M13.1996106,6.72729923 C12.482139,7.41607312 12.0377566,8.3670197 12.0377566,9.41569501 L12.0377566,14.2220858 L19.9622434,14.2220858 L19.9622434,9.41569501 C19.9622434,7.31836344 18.1847461,5.61193966 16.0000596,5.61193966 C14.9076373,5.61193966 13.9170431,6.03854913 13.1995562,6.72732652 Z M17.135569,20.45103 C17.6688123,20.1041089 18.0193458,19.5178187 18.0193457,18.8528439 C18.0193457,17.7873009 17.1195815,16.9235138 16.009658,16.9235138 C14.8997642,16.9235138 14,17.7873009 14,18.8528439 C14,19.5177901 14.3505037,20.104109 14.883747,20.4510014 L14.883747,22.9005415 C14.883747,23.4840307 15.3810556,23.9614544 15.9888475,23.9614544 L16.0304685,23.9614544 C16.6382604,23.9614544 17.135569,23.4840307 17.135569,22.9005415 L17.135569,20.45103 Z" id="合并形状"></path>
                    </g>
                </g>
            </g>
        </g>
    </g>
</svg>