<?xml version="1.0" encoding="UTF-8"?>
<svg width="30px" height="30px" viewBox="0 0 30 30" version="1.1" xmlns="http://www.w3.org/2000/svg" xmlns:xlink="http://www.w3.org/1999/xlink">
    <!-- Generator: Sketch 53.2 (72643) - https://sketchapp.com -->
    <title>ic_save</title>
    <desc>Created with Sketch.</desc>
    <g id="1440x900" stroke="none" stroke-width="1" fill="none" fill-rule="evenodd">
        <g id="04圆形矩形选择" transform="translate(-181.000000, -75.000000)" fill="#666666" fill-rule="nonzero">
            <g id="工具栏" transform="translate(0.000000, 60.000000)">
                <g id="ic/save" transform="translate(176.000000, 10.000000)">
                    <g id="分组" transform="translate(5.000000, 5.000000)">
                        <path d="M10.8,10.3090909 L10.8,3.43636364 L18.1636364,3.43636364 L18.1636364,10.3090909 L10.8,10.3090909 Z M20.8032546,3.43636364 C22.3270984,3.43798706 23.5620129,4.67290162 23.5636364,6.19674545 L23.5636364,20.8032545 C23.562013,22.3270984 22.3270984,23.5620129 20.8032546,23.5636364 L8.16038183,23.5636364 C6.63664998,23.561743 5.40189334,22.3269864 5.4,20.8032545 L5.4,6.19674545 C5.40189335,4.6730136 6.63664999,3.43825698 8.16038183,3.43636364 L9.32727272,3.43636364 L9.32727272,11.0454545 C9.32727272,11.4521369 9.65695395,11.7818182 10.0636364,11.7818182 L18.9,11.7818182 C19.3066824,11.7818182 19.6363636,11.4521369 19.6363636,11.0454545 L19.6363636,3.43636364 L20.8032546,3.43636364 Z M15.9545454,9.08181817 C16.305403,9.08173049 16.629562,8.89446919 16.8049148,8.59057379 C16.9802676,8.2866784 16.9801741,7.91231785 16.8046694,7.60851014 C16.6291646,7.30470244 16.3049121,7.1176032 15.9540546,7.11769089 C15.603197,7.11777858 15.279038,7.30503988 15.1036852,7.60893528 C14.9283324,7.91283067 14.928426,8.28719121 15.1039307,8.59099891 C15.2794354,8.89480662 15.6036879,9.08190586 15.9545454,9.08181817 Z" id="形状"></path>
                    </g>
                </g>
            </g>
        </g>
    </g>
</svg>