<?xml version="1.0" encoding="UTF-8"?>
<svg width="30px" height="30px" viewBox="0 0 30 30" version="1.1" xmlns="http://www.w3.org/2000/svg" xmlns:xlink="http://www.w3.org/1999/xlink">
    <!-- Generator: Sketch 53.2 (72643) - https://sketchapp.com -->
    <title>ic_search</title>
    <desc>Created with Sketch.</desc>
    <g id="1440x900" stroke="none" stroke-width="1" fill="none" fill-rule="evenodd">
        <g id="04圆形矩形选择" transform="translate(-212.000000, -799.000000)" fill="#666666" fill-rule="nonzero">
            <g id="左侧栏" transform="translate(0.000000, 120.000000)">
                <g id="分组-7-copy-2" transform="translate(0.000000, 670.000000)">
                    <g id="形状" transform="translate(212.000000, 9.000000)">
                        <path d="M19.3893018,17.5193854 C19.4883739,17.5772951 19.5817199,17.6487233 19.6666667,17.73367 L21.5996633,19.6666667 C22.1334456,20.2004489 22.1334456,21.065881 21.5996633,21.5996633 C21.065881,22.1334456 20.2004489,22.1334456 19.6666667,21.5996633 L17.73367,19.6666667 C17.6193306,19.5523273 17.5294834,19.4227704 17.4641284,19.2845153 C15.036109,20.7323514 11.9018599,20.4023341 9.82720496,18.4083076 C8.65921648,17.2768522 8,15.720976 8,14.0957566 C8,12.4705371 8.65921648,10.9146609 9.82720496,9.78320547 C12.2799243,7.40559818 16.1802996,7.40559818 18.6330189,9.78320547 C20.7691437,11.8521313 21.0479599,15.1352952 19.3893018,17.5193854 L19.3893018,17.5193854 Z M10.1296069,14.0957566 C10.1671361,16.3876631 11.9997515,18.2189095 14.2329655,18.1960499 C16.4639629,18.2156709 18.2930964,16.385358 18.330617,14.0957566 C18.2930964,11.8061551 16.4639629,9.97584224 14.2329655,9.9954632 C11.9997515,9.97260356 10.1671361,11.80385 10.1296069,14.0957566 Z"></path>
                    </g>
                </g>
            </g>
        </g>
    </g>
</svg>