<?xml version="1.0" encoding="UTF-8"?>
<svg width="40px" height="40px" viewBox="0 0 40 40" version="1.1" xmlns="http://www.w3.org/2000/svg" xmlns:xlink="http://www.w3.org/1999/xlink">
    <!-- Generator: Sketch 53.2 (72643) - https://sketchapp.com -->
    <title>ic_switch</title>
    <desc>Created with Sketch.</desc>
    <g id="1440x900" stroke="none" stroke-width="1" fill="none" fill-rule="evenodd">
        <g id="04圆形矩形选择" transform="translate(-34.000000, -436.000000)">
            <g id="左侧栏" transform="translate(0.000000, 120.000000)">
                <g id="分组-13-copy-3" transform="translate(19.000000, 316.000000)">
                    <g id="分组-11" transform="translate(15.000000, 0.000000)">
                        <g id="ic/switch">
                            <g id="ic/" transform="translate(2.000000, 1.000000)" fill="#333333" fill-rule="nonzero" stroke="#333333">
                                <path d="M18.1316909,6.91138822 C12.2673982,6.91138822 7.49882477,11.7411432 7.49882477,17.6803256 C7.49882477,21.8138091 9.81877707,25.5558754 13.4702833,27.3614958 L13.4702833,32.0171044 C13.4702833,33.3224563 14.2437687,34.4538973 15.3607971,34.9541658 L15.3607971,35.9549382 C15.3607971,37.0863008 16.2628738,38 17.3799409,38 L18.9266016,38 C20.0435526,38 20.945823,37.08634 20.945823,35.9549382 L20.945823,34.9543228 C22.0627352,34.4539758 22.8361042,33.322574 22.8361042,32.0171437 L22.8361042,27.3615351 C26.4662238,25.5559147 28.8076016,21.8138876 28.8076016,17.6803648 C28.7646732,11.7410647 23.9959835,6.9112705 18.1317684,6.9112705 L18.1317684,6.9112705 L18.1316909,6.91138822 Z M18.9047888,36.4772595 L17.3582055,36.4772595 C17.0791325,36.4772595 16.8426003,36.2378181 16.8426003,35.9550952 L16.8426003,35.2370457 L19.420549,35.2370457 L19.420549,35.9550952 C19.420549,36.2377789 19.184133,36.4772595 18.9047888,36.4772595 L18.9047888,36.4772595 Z M19.6138428,33.7141482 L16.6494615,33.7141482 C15.7259593,33.7141482 14.9738995,32.952778 14.9738995,32.0171437 L14.9738995,30.1897844 L21.3109077,30.1897844 L21.3109077,32.0171437 C21.2893273,32.9527387 20.5374224,33.7141482 19.6138041,33.7141482 L19.6138041,33.7141482 L19.6138428,33.7141482 Z M18.1316909,22.6188925 L16.5205602,19.6384711 L19.7211637,19.6384711 L18.1316521,22.6188925 L18.1316909,22.6188925 Z M21.7404238,26.1649952 L21.2894048,26.3608019 L21.2894048,28.6670047 L18.8834796,28.6670047 L18.8834796,24.1853854 C19.0124196,24.0982338 19.0984313,23.9678006 19.1842493,23.8373675 L21.3752615,19.7472439 C21.5685554,19.4209256 21.5470524,19.0076125 21.3538361,18.6812549 C21.1391168,18.3331585 20.7522967,18.1154559 20.3227806,18.1154559 L15.9192532,18.1154559 C15.4895434,18.1154559 15.1029945,18.3328838 14.8882365,18.6812549 C14.6948651,19.0075733 14.6733235,19.3991082 14.8667723,19.7472439 L17.0793649,23.8590278 C17.1651442,23.9893825 17.2511559,24.1199727 17.3799797,24.2071243 L17.3799797,28.6670047 L14.9741319,28.6670047 L14.9741319,26.3608019 L14.5230355,26.1649952 C11.1721827,24.707589 9.02409877,21.3570576 9.02409877,17.6804825 C9.02409877,12.5895866 13.1268565,8.43440341 18.1533488,8.43440341 C23.1797248,8.43440341 27.2826763,12.5896651 27.2826763,17.6804825 C27.2612508,21.3570576 25.091664,24.6858894 21.7406562,26.1649952 L21.7406562,26.1649952 L21.7404238,26.1649952 Z M0,15.5283745 L3.98784299,15.5283745 L3.98784299,17.0881574 L0,17.0881574 L0,15.5283745 Z M8.01574729,8.09340936 L5.19595857,5.23753516 L6.28513005,4.13469998 L9.10491877,6.99057418 L8.01574729,8.09340936 L8.01574729,8.09340936 Z M26.9359174,6.99061342 L29.7557061,4.13473922 L30.8446451,5.2375744 L28.0248952,8.0934486 L26.9359174,6.99061342 Z M32.0121958,15.5283745 L36,15.5283745 L36,17.0881574 L32.0121958,17.0881574 L32.0121958,15.5283745 Z M17.2298854,0 L18.7699596,0 L18.7699596,4.0388371 L17.2298854,4.0388371 L17.2298854,0 Z" id="形状"></path>
                            </g>
                            <path d="M19.6637492,24.3634148 L17.5737997,20.6131022 C17.4393766,20.3718864 17.5259491,20.067371 17.7671649,19.9329478 C17.8415838,19.8914762 17.9253652,19.8697076 18.0105595,19.8697076 L22.1904585,19.8697076 C22.4666009,19.8697076 22.6904585,20.0935652 22.6904585,20.3697076 C22.6904585,20.4549019 22.6686899,20.5386833 22.6272183,20.6131022 L20.5372687,24.3634148 C20.4028456,24.6046306 20.0983301,24.6912031 19.8571144,24.55678 C19.7759433,24.5115455 19.7089837,24.4445859 19.6637492,24.3634148 Z" id="三角形" stroke="#617EFE" stroke-width="2.8"></path>
                            <path d="M19.6637492,23.0365323 L18.6367365,21.193608 C18.5023134,20.9523922 18.5888859,20.6478768 18.8301017,20.5134536 C18.9045206,20.471982 18.9883019,20.4502134 19.0734963,20.4502134 L21.1275217,20.4502134 C21.4036641,20.4502134 21.6275217,20.674071 21.6275217,20.9502134 C21.6275217,21.0354077 21.6057531,21.1191891 21.5642815,21.193608 L20.5372687,23.0365323 C20.4028456,23.2777481 20.0983301,23.3643206 19.8571144,23.2298975 C19.7759433,23.184663 19.7089837,23.1177034 19.6637492,23.0365323 Z" id="三角形-copy" fill="#FFFFFF"></path>
                            <rect id="矩形" fill="#617EFE" x="18.8022158" y="25" width="2.64972693" height="4.1666519"></rect>
                        </g>
                    </g>
                </g>
            </g>
        </g>
    </g>
</svg>