<?xml version="1.0" encoding="UTF-8"?>
<svg width="30px" height="30px" viewBox="0 0 30 30" version="1.1" xmlns="http://www.w3.org/2000/svg" xmlns:xlink="http://www.w3.org/1999/xlink">
    <!-- Generator: Sketch 53.2 (72643) - https://sketchapp.com -->
    <title>ic_unlock</title>
    <desc>Created with Sketch.</desc>
    <g id="1440x900" stroke="none" stroke-width="1" fill="none" fill-rule="evenodd">
        <g id="04圆形矩形选择" transform="translate(-583.000000, -75.000000)" fill="#666666" fill-rule="nonzero">
            <g id="工具栏" transform="translate(0.000000, 60.000000)">
                <g id="分组-19" transform="translate(578.000000, 10.000000)">
                    <g id="ic/unlock" transform="translate(4.200000, 5.000000)">
                        <path d="M24.6396358,14.2220858 C25.3878317,14.2220858 26,14.8097479 26,15.5280271 L26,25.6940302 C26,26.4123093 25.3878317,27 24.6396358,27 L7.36036417,27 C6.61216834,27 6,26.4123093 6,25.6940302 L6,15.5280556 C6,14.8097765 6.61216834,14.2220858 7.36036417,14.2220858 L9.3170283,14.2220858 L9.3170283,9.41569501 C9.3170283,5.87800388 12.3149026,3 15.9999404,3 C19.6849783,3 22.6830312,5.87800388 22.6830312,9.41569501 C22.6830312,10.136918 22.0739294,10.7216648 21.3226671,10.7216648 C20.5714048,10.7216648 19.9623029,10.136918 19.9623029,9.41569501 C19.9623029,7.31836344 18.1847759,5.61193966 15.9999404,5.61193966 C13.8152539,5.61193966 12.0377566,7.31836344 12.0377566,9.41569501 L12.0377566,14.2220858 L24.6396358,14.2220858 Z M17.1259408,20.45103 C17.659184,20.1041089 18.0097175,19.5178187 18.0097175,18.8528439 C18.0097175,17.7873009 17.1099533,16.9235138 16.0000298,16.9235138 C14.890136,16.9235138 13.9903718,17.7873009 13.9903718,18.8528439 C13.9903718,19.5177901 14.3408755,20.104109 14.8741187,20.4510014 L14.8741187,22.9005415 C14.8741187,23.4840307 15.3714274,23.9614544 15.9792193,23.9614544 L16.0208403,23.9614544 C16.6286322,23.9614544 17.1259408,23.4840307 17.1259408,22.9005415 L17.1259408,20.45103 Z" id="合并形状-copy-2"></path>
                    </g>
                </g>
            </g>
        </g>
    </g>
</svg>